<?xml version="1.0" encoding="UTF-8" standalone="no"?>
<svg
   xmlns:dc="http://purl.org/dc/elements/1.1/"
   xmlns:cc="http://creativecommons.org/ns#"
   xmlns:rdf="http://www.w3.org/1999/02/22-rdf-syntax-ns#"
   xmlns:svg="http://www.w3.org/2000/svg"
   xmlns="http://www.w3.org/2000/svg"
   xmlns:sodipodi="http://sodipodi.sourceforge.net/DTD/sodipodi-0.dtd"
   xmlns:inkscape="http://www.inkscape.org/namespaces/inkscape"
   shape-rendering="geometricPrecision"
   text-rendering="geometricPrecision"
   image-rendering="optimizeQuality"
   fill-rule="evenodd"
   clip-rule="evenodd"
   viewBox="0 0 512 511.98"
   version="1.1"
   id="svg4"
   sodipodi:docname="item-count.svg"
   inkscape:version="0.92.5 (2060ec1f9f, 2020-04-08)">
  <metadata
     id="metadata10">
    <rdf:RDF>
      <cc:Work
         rdf:about="">
        <dc:format>image/svg+xml</dc:format>
        <dc:type
           rdf:resource="http://purl.org/dc/dcmitype/StillImage" />
      </cc:Work>
    </rdf:RDF>
  </metadata>
  <defs
     id="defs8" />
  <sodipodi:namedview
     pagecolor="#ffffff"
     bordercolor="#666666"
     borderopacity="1"
     objecttolerance="10"
     gridtolerance="10"
     guidetolerance="10"
     inkscape:pageopacity="0"
     inkscape:pageshadow="2"
     inkscape:window-width="1247"
     inkscape:window-height="651"
     id="namedview6"
     showgrid="false"
     inkscape:zoom="0.4609555"
     inkscape:cx="-65.07221"
     inkscape:cy="246.22767"
     inkscape:window-x="547"
     inkscape:window-y="108"
     inkscape:window-maximized="0"
     inkscape:current-layer="svg4" />
  <g
     id="g3716"
     transform="matrix(0.91304348,0,0,0.91304348,22.230847,22.289252)">
    <path
       style="stroke-width:0.8984375"
       inkscape:connector-curvature="0"
       id="path2"
       d="M 31.728976,25.966956 H 138.93953 c 3.14453,0 5.69609,2.560547 5.69609,5.696094 V 138.8736 c 0,3.14453 -2.55156,5.69609 -5.69609,5.69609 H 31.728976 c -3.135547,0 -5.696094,-2.55156 -5.696094,-5.69609 V 31.66305 c 0,-3.135547 2.560547,-5.696094 5.696094,-5.696094 z M 373.12624,367.35524 h 107.21055 c 3.13555,0 5.69609,2.54258 5.69609,5.69609 v 107.21054 c 0,3.12657 -2.56054,5.68711 -5.69609,5.68711 H 373.12624 c -3.14453,0 -5.69608,-2.56054 -5.69608,-5.68711 V 373.05133 c 0,-3.15351 2.55155,-5.69609 5.69608,-5.69609 z m 0,-170.70313 h 107.21055 c 3.13555,0 5.69609,2.56056 5.69609,5.69609 v 107.21954 c 0,3.13554 -2.56054,5.6871 -5.69609,5.6871 H 373.12624 c -3.14453,0 -5.69608,-2.55156 -5.69608,-5.6871 V 202.3482 c 0,-3.13553 2.55155,-5.69609 5.69608,-5.69609 z m 0,-170.685154 h 107.21055 c 3.13555,0 5.69609,2.560547 5.69609,5.696094 V 138.8736 c 0,3.14453 -2.56054,5.69609 -5.69609,5.69609 H 373.12624 c -3.14453,0 -5.69608,-2.55156 -5.69608,-5.69609 V 31.66305 c 0,-3.135547 2.55155,-5.696094 5.69608,-5.696094 z M 202.43211,367.35524 h 107.21952 c 3.13556,0 5.69609,2.54258 5.69609,5.69609 v 107.21054 c 0,3.12657 -2.56053,5.68711 -5.69609,5.68711 H 202.43211 c -3.13555,0 -5.6961,-2.56054 -5.6961,-5.68711 V 373.05133 c 0,-3.15351 2.56055,-5.69609 5.6961,-5.69609 z m 0,-170.70313 h 107.21952 c 3.13556,0 5.69609,2.56056 5.69609,5.69609 v 107.21954 c 0,3.13554 -2.56053,5.6871 -5.69609,5.6871 H 202.43211 c -3.13555,0 -5.6961,-2.55156 -5.6961,-5.6871 V 202.3482 c 0,-3.13553 2.56055,-5.69609 5.6961,-5.69609 z m 0,-170.685154 h 107.21952 c 3.13556,0 5.69609,2.560547 5.69609,5.696094 V 138.8736 c 0,3.14453 -2.56053,5.69609 -5.69609,5.69609 H 202.43211 c -3.13555,0 -5.6961,-2.55156 -5.6961,-5.69609 V 31.66305 c 0,-3.135547 2.56055,-5.696094 5.6961,-5.696094 z M 31.728976,367.35524 H 138.93953 c 3.14453,0 5.69609,2.54258 5.69609,5.69609 v 107.21054 c 0,3.12657 -2.55156,5.68711 -5.69609,5.68711 H 31.728976 c -3.135547,0 -5.696094,-2.56054 -5.696094,-5.68711 V 373.05133 c 0,-3.15351 2.560547,-5.69609 5.696094,-5.69609 z m 0,-170.70313 H 138.93953 c 3.14453,0 5.69609,2.56056 5.69609,5.69609 v 107.21954 c 0,3.13554 -2.55156,5.6871 -5.69609,5.6871 H 31.728976 c -3.135547,0 -5.696094,-2.55156 -5.696094,-5.6871 V 202.3482 c 0,-3.13553 2.560547,-5.69609 5.696094,-5.69609 z" />
  </g>
</svg>
