<?xml version="1.0" encoding="utf-8" standalone="no"?>
<!DOCTYPE svg PUBLIC "-//W3C//DTD SVG 1.1//EN"
  "http://www.w3.org/Graphics/SVG/1.1/DTD/svg11.dtd">
<svg xmlns:xlink="http://www.w3.org/1999/xlink" width="1440pt" height="720pt" viewBox="0 0 1440 720" xmlns="http://www.w3.org/2000/svg" version="1.1">
 <metadata>
  <rdf:RDF xmlns:dc="http://purl.org/dc/elements/1.1/" xmlns:cc="http://creativecommons.org/ns#" xmlns:rdf="http://www.w3.org/1999/02/22-rdf-syntax-ns#">
   <cc:Work>
    <dc:type rdf:resource="http://purl.org/dc/dcmitype/StillImage"/>
    <dc:date>2023-04-17T14:21:14.477196</dc:date>
    <dc:format>image/svg+xml</dc:format>
    <dc:creator>
     <cc:Agent>
      <dc:title>Matplotlib v3.5.3, https://matplotlib.org/</dc:title>
     </cc:Agent>
    </dc:creator>
   </cc:Work>
  </rdf:RDF>
 </metadata>
 <defs>
  <style type="text/css">*{stroke-linejoin: round; stroke-linecap: butt}</style>
 </defs>
 <g id="figure_1">
  <g id="patch_1">
   <path d="M 0 720 
L 1440 720 
L 1440 0 
L 0 0 
z
" style="fill: #ffffff"/>
  </g>
  <g id="axes_1">
   <g id="patch_2">
    <path d="M 60.68 595.462447 
L 1423.8 595.462447 
L 1423.8 16.2 
L 60.68 16.2 
z
" style="fill: #ffffff"/>
   </g>
   <g id="patch_3">
    <path d="M 122.64 595.462447 
L 146.356746 595.462447 
L 146.356746 43.783926 
L 122.64 43.783926 
z
" clip-path="url(#pd3fe94de4d)" style="fill: #4a98c9"/>
   </g>
   <g id="patch_4">
    <path d="M 152.285933 595.462447 
L 176.002679 595.462447 
L 176.002679 163.183926 
L 152.285933 163.183926 
z
" clip-path="url(#pd3fe94de4d)" style="fill: #4b98ca"/>
   </g>
   <g id="patch_5">
    <path d="M 181.931866 595.462447 
L 205.648612 595.462447 
L 205.648612 375.822595 
L 181.931866 375.822595 
z
" clip-path="url(#pd3fe94de4d)" style="fill: #4d99ca"/>
   </g>
   <g id="patch_6">
    <path d="M 211.577799 595.462447 
L 235.294545 595.462447 
L 235.294545 404.775069 
L 211.577799 404.775069 
z
" clip-path="url(#pd3fe94de4d)" style="fill: #4f9bcb"/>
   </g>
   <g id="patch_7">
    <path d="M 241.223732 595.462447 
L 264.940478 595.462447 
L 264.940478 410.711902 
L 241.223732 410.711902 
z
" clip-path="url(#pd3fe94de4d)" style="fill: #519ccc"/>
   </g>
   <g id="patch_8">
    <path d="M 270.869665 595.462447 
L 294.586411 595.462447 
L 294.586411 429.589019 
L 270.869665 429.589019 
z
" clip-path="url(#pd3fe94de4d)" style="fill: #529dcc"/>
   </g>
   <g id="patch_9">
    <path d="M 300.515598 595.462447 
L 324.232344 595.462447 
L 324.232344 444.029506 
L 300.515598 444.029506 
z
" clip-path="url(#pd3fe94de4d)" style="fill: #539ecd"/>
   </g>
   <g id="patch_10">
    <path d="M 330.161531 595.462447 
L 353.878278 595.462447 
L 353.878278 449.410372 
L 330.161531 449.410372 
z
" clip-path="url(#pd3fe94de4d)" style="fill: #549fcd"/>
   </g>
   <g id="patch_11">
    <path d="M 359.807464 595.462447 
L 383.524211 595.462447 
L 383.524211 452.485152 
L 359.807464 452.485152 
z
" clip-path="url(#pd3fe94de4d)" style="fill: #57a0ce"/>
   </g>
   <g id="patch_12">
    <path d="M 389.453397 595.462447 
L 413.170144 595.462447 
L 413.170144 454.037325 
L 389.453397 454.037325 
z
" clip-path="url(#pd3fe94de4d)" style="fill: #58a1cf"/>
   </g>
   <g id="patch_13">
    <path d="M 419.09933 595.462447 
L 442.816077 595.462447 
L 442.816077 461.895468 
L 419.09933 461.895468 
z
" clip-path="url(#pd3fe94de4d)" style="fill: #5aa2cf"/>
   </g>
   <g id="patch_14">
    <path d="M 448.745263 595.462447 
L 472.46201 595.462447 
L 472.46201 462.074927 
L 448.745263 462.074927 
z
" clip-path="url(#pd3fe94de4d)" style="fill: #5ba3d0"/>
   </g>
   <g id="patch_15">
    <path d="M 478.391196 595.462447 
L 502.107943 595.462447 
L 502.107943 465.446743 
L 478.391196 465.446743 
z
" clip-path="url(#pd3fe94de4d)" style="fill: #5da5d1"/>
   </g>
   <g id="patch_16">
    <path d="M 508.037129 595.462447 
L 531.753876 595.462447 
L 531.753876 467.544801 
L 508.037129 467.544801 
z
" clip-path="url(#pd3fe94de4d)" style="fill: #5fa6d1"/>
   </g>
   <g id="patch_17">
    <path d="M 537.683062 595.462447 
L 561.399809 595.462447 
L 561.399809 468.037303 
L 537.683062 468.037303 
z
" clip-path="url(#pd3fe94de4d)" style="fill: #60a7d2"/>
   </g>
   <g id="patch_18">
    <path d="M 567.328995 595.462447 
L 591.045742 595.462447 
L 591.045742 468.8277 
L 567.328995 468.8277 
z
" clip-path="url(#pd3fe94de4d)" style="fill: #61a7d2"/>
   </g>
   <g id="patch_19">
    <path d="M 596.974928 595.462447 
L 620.691675 595.462447 
L 620.691675 468.96865 
L 596.974928 468.96865 
z
" clip-path="url(#pd3fe94de4d)" style="fill: #63a8d3"/>
   </g>
   <g id="patch_20">
    <path d="M 626.620861 595.462447 
L 650.337608 595.462447 
L 650.337608 470.707992 
L 626.620861 470.707992 
z
" clip-path="url(#pd3fe94de4d)" style="fill: #65aad4"/>
   </g>
   <g id="patch_21">
    <path d="M 656.266794 595.462447 
L 679.983541 595.462447 
L 679.983541 474.531329 
L 656.266794 474.531329 
z
" clip-path="url(#pd3fe94de4d)" style="fill: #66abd4"/>
   </g>
   <g id="patch_22">
    <path d="M 685.912727 595.462447 
L 709.629474 595.462447 
L 709.629474 479.570125 
L 685.912727 479.570125 
z
" clip-path="url(#pd3fe94de4d)" style="fill: #68acd5"/>
   </g>
   <g id="patch_23">
    <path d="M 715.55866 595.462447 
L 739.275407 595.462447 
L 739.275407 482.728501 
L 715.55866 482.728501 
z
" clip-path="url(#pd3fe94de4d)" style="fill: #69add5"/>
   </g>
   <g id="patch_24">
    <path d="M 745.204593 595.462447 
L 768.92134 595.462447 
L 768.92134 484.554152 
L 745.204593 484.554152 
z
" clip-path="url(#pd3fe94de4d)" style="fill: #6aaed6"/>
   </g>
   <g id="patch_25">
    <path d="M 774.850526 595.462447 
L 798.567273 595.462447 
L 798.567273 486.720038 
L 774.850526 486.720038 
z
" clip-path="url(#pd3fe94de4d)" style="fill: #6dafd7"/>
   </g>
   <g id="patch_26">
    <path d="M 804.496459 595.462447 
L 828.213206 595.462447 
L 828.213206 487.463784 
L 804.496459 487.463784 
z
" clip-path="url(#pd3fe94de4d)" style="fill: #6fb0d7"/>
   </g>
   <g id="patch_27">
    <path d="M 834.142392 595.462447 
L 857.859139 595.462447 
L 857.859139 489.733445 
L 834.142392 489.733445 
z
" clip-path="url(#pd3fe94de4d)" style="fill: #71b1d7"/>
   </g>
   <g id="patch_28">
    <path d="M 863.788325 595.462447 
L 887.505072 595.462447 
L 887.505072 492.002521 
L 863.788325 492.002521 
z
" clip-path="url(#pd3fe94de4d)" style="fill: #72b2d8"/>
   </g>
   <g id="patch_29">
    <path d="M 893.434258 595.462447 
L 917.151005 595.462447 
L 917.151005 503.034704 
L 893.434258 503.034704 
z
" clip-path="url(#pd3fe94de4d)" style="fill: #75b4d8"/>
   </g>
   <g id="patch_30">
    <path d="M 923.080191 595.462447 
L 946.796938 595.462447 
L 946.796938 503.084509 
L 923.080191 503.084509 
z
" clip-path="url(#pd3fe94de4d)" style="fill: #77b5d9"/>
   </g>
   <g id="patch_31">
    <path d="M 952.726124 595.462447 
L 976.442871 595.462447 
L 976.442871 504.293294 
L 952.726124 504.293294 
z
" clip-path="url(#pd3fe94de4d)" style="fill: #79b5d9"/>
   </g>
   <g id="patch_32">
    <path d="M 982.372057 595.462447 
L 1006.088804 595.462447 
L 1006.088804 505.669247 
L 982.372057 505.669247 
z
" clip-path="url(#pd3fe94de4d)" style="fill: #7ab6d9"/>
   </g>
   <g id="patch_33">
    <path d="M 1012.01799 595.462447 
L 1035.734737 595.462447 
L 1035.734737 505.817792 
L 1012.01799 505.817792 
z
" clip-path="url(#pd3fe94de4d)" style="fill: #7cb7da"/>
   </g>
   <g id="patch_34">
    <path d="M 1041.663923 595.462447 
L 1065.38067 595.462447 
L 1065.38067 505.906867 
L 1041.663923 505.906867 
z
" clip-path="url(#pd3fe94de4d)" style="fill: #7fb9da"/>
   </g>
   <g id="patch_35">
    <path d="M 1071.309856 595.462447 
L 1095.026603 595.462447 
L 1095.026603 512.443373 
L 1071.309856 512.443373 
z
" clip-path="url(#pd3fe94de4d)" style="fill: #81badb"/>
   </g>
   <g id="patch_36">
    <path d="M 1100.955789 595.462447 
L 1124.672536 595.462447 
L 1124.672536 513.890809 
L 1100.955789 513.890809 
z
" clip-path="url(#pd3fe94de4d)" style="fill: #82bbdb"/>
   </g>
   <g id="patch_37">
    <path d="M 1130.601722 595.462447 
L 1154.318469 595.462447 
L 1154.318469 514.891852 
L 1130.601722 514.891852 
z
" clip-path="url(#pd3fe94de4d)" style="fill: #84bcdb"/>
   </g>
   <g id="patch_38">
    <path d="M 1160.247656 595.462447 
L 1183.964402 595.462447 
L 1183.964402 517.27351 
L 1160.247656 517.27351 
z
" clip-path="url(#pd3fe94de4d)" style="fill: #87bddc"/>
   </g>
   <g id="patch_39">
    <path d="M 1189.893589 595.462447 
L 1213.610335 595.462447 
L 1213.610335 517.804161 
L 1189.893589 517.804161 
z
" clip-path="url(#pd3fe94de4d)" style="fill: #89bedc"/>
   </g>
   <g id="patch_40">
    <path d="M 1219.539522 595.462447 
L 1243.256268 595.462447 
L 1243.256268 523.945212 
L 1219.539522 523.945212 
z
" clip-path="url(#pd3fe94de4d)" style="fill: #8abfdd"/>
   </g>
   <g id="patch_41">
    <path d="M 1249.185455 595.462447 
L 1272.902201 595.462447 
L 1272.902201 524.066455 
L 1249.185455 524.066455 
z
" clip-path="url(#pd3fe94de4d)" style="fill: #8cc0dd"/>
   </g>
   <g id="patch_42">
    <path d="M 1278.831388 595.462447 
L 1302.548134 595.462447 
L 1302.548134 524.291665 
L 1278.831388 524.291665 
z
" clip-path="url(#pd3fe94de4d)" style="fill: #8dc1dd"/>
   </g>
   <g id="patch_43">
    <path d="M 1308.477321 595.462447 
L 1332.194067 595.462447 
L 1332.194067 526.087711 
L 1308.477321 526.087711 
z
" clip-path="url(#pd3fe94de4d)" style="fill: #91c3de"/>
   </g>
   <g id="patch_44">
    <path d="M 1338.123254 595.462447 
L 1361.84 595.462447 
L 1361.84 534.50806 
L 1338.123254 534.50806 
z
" clip-path="url(#pd3fe94de4d)" style="fill: #92c4de"/>
   </g>
   <g id="patch_45">
    <path d="M 122.64 595.462447 
L 146.356746 595.462447 
L 146.356746 508.827011 
L 122.64 508.827011 
z
" clip-path="url(#pd3fe94de4d)" style="fill: #f14432"/>
   </g>
   <g id="patch_46">
    <path d="M 152.285933 595.462447 
L 176.002679 595.462447 
L 176.002679 529.739013 
L 152.285933 529.739013 
z
" clip-path="url(#pd3fe94de4d)" style="fill: #f24633"/>
   </g>
   <g id="patch_47">
    <path d="M 181.931866 595.462447 
L 205.648612 595.462447 
L 205.648612 532.547707 
L 181.931866 532.547707 
z
" clip-path="url(#pd3fe94de4d)" style="fill: #f24734"/>
   </g>
   <g id="patch_48">
    <path d="M 211.577799 595.462447 
L 235.294545 595.462447 
L 235.294545 518.039944 
L 211.577799 518.039944 
z
" clip-path="url(#pd3fe94de4d)" style="fill: #f34a36"/>
   </g>
   <g id="patch_49">
    <path d="M 241.223732 595.462447 
L 264.940478 595.462447 
L 264.940478 529.739013 
L 241.223732 529.739013 
z
" clip-path="url(#pd3fe94de4d)" style="fill: #f34c37"/>
   </g>
   <g id="patch_50">
    <path d="M 270.869665 595.462447 
L 294.586411 595.462447 
L 294.586411 523.479638 
L 270.869665 523.479638 
z
" clip-path="url(#pd3fe94de4d)" style="fill: #f44d38"/>
   </g>
   <g id="patch_51">
    <path d="M 300.515598 595.462447 
L 324.232344 595.462447 
L 324.232344 520.514672 
L 300.515598 520.514672 
z
" clip-path="url(#pd3fe94de4d)" style="fill: #f44f39"/>
   </g>
   <g id="patch_52">
    <path d="M 330.161531 595.462447 
L 353.878278 595.462447 
L 353.878278 541.736148 
L 330.161531 541.736148 
z
" clip-path="url(#pd3fe94de4d)" style="fill: #f4503a"/>
   </g>
   <g id="patch_53">
    <path d="M 359.807464 595.462447 
L 383.524211 595.462447 
L 383.524211 532.045099 
L 359.807464 532.045099 
z
" clip-path="url(#pd3fe94de4d)" style="fill: #f5533b"/>
   </g>
   <g id="patch_54">
    <path d="M 389.453397 595.462447 
L 413.170144 595.462447 
L 413.170144 513.773807 
L 389.453397 513.773807 
z
" clip-path="url(#pd3fe94de4d)" style="fill: #f6553c"/>
   </g>
   <g id="patch_55">
    <path d="M 419.09933 595.462447 
L 442.816077 595.462447 
L 442.816077 548.466658 
L 419.09933 548.466658 
z
" clip-path="url(#pd3fe94de4d)" style="fill: #f6563d"/>
   </g>
   <g id="patch_56">
    <path d="M 448.745263 595.462447 
L 472.46201 595.462447 
L 472.46201 531.550289 
L 448.745263 531.550289 
z
" clip-path="url(#pd3fe94de4d)" style="fill: #f6583e"/>
   </g>
   <g id="patch_57">
    <path d="M 478.391196 595.462447 
L 502.107943 595.462447 
L 502.107943 507.500933 
L 478.391196 507.500933 
z
" clip-path="url(#pd3fe94de4d)" style="fill: #f75b40"/>
   </g>
   <g id="patch_58">
    <path d="M 508.037129 595.462447 
L 531.753876 595.462447 
L 531.753876 504.967871 
L 508.037129 504.967871 
z
" clip-path="url(#pd3fe94de4d)" style="fill: #f75c41"/>
   </g>
   <g id="patch_59">
    <path d="M 537.683062 595.462447 
L 561.399809 595.462447 
L 561.399809 540.534167 
L 537.683062 540.534167 
z
" clip-path="url(#pd3fe94de4d)" style="fill: #f85d42"/>
   </g>
   <g id="patch_60">
    <path d="M 567.328995 595.462447 
L 591.045742 595.462447 
L 591.045742 545.441722 
L 567.328995 545.441722 
z
" clip-path="url(#pd3fe94de4d)" style="fill: #f85f43"/>
   </g>
   <g id="patch_61">
    <path d="M 596.974928 595.462447 
L 620.691675 595.462447 
L 620.691675 551.646824 
L 596.974928 551.646824 
z
" clip-path="url(#pd3fe94de4d)" style="fill: #f96044"/>
   </g>
   <g id="patch_62">
    <path d="M 626.620861 595.462447 
L 650.337608 595.462447 
L 650.337608 529.463443 
L 626.620861 529.463443 
z
" clip-path="url(#pd3fe94de4d)" style="fill: #f96346"/>
   </g>
   <g id="patch_63">
    <path d="M 656.266794 595.462447 
L 679.983541 595.462447 
L 679.983541 539.37845 
L 656.266794 539.37845 
z
" clip-path="url(#pd3fe94de4d)" style="fill: #fa6547"/>
   </g>
   <g id="patch_64">
    <path d="M 685.912727 595.462447 
L 709.629474 595.462447 
L 709.629474 544.198169 
L 685.912727 544.198169 
z
" clip-path="url(#pd3fe94de4d)" style="fill: #fa6648"/>
   </g>
   <g id="patch_65">
    <path d="M 715.55866 595.462447 
L 739.275407 595.462447 
L 739.275407 529.739013 
L 715.55866 529.739013 
z
" clip-path="url(#pd3fe94de4d)" style="fill: #fa6849"/>
   </g>
   <g id="patch_66">
    <path d="M 745.204593 595.462447 
L 768.92134 595.462447 
L 768.92134 542.062157 
L 745.204593 542.062157 
z
" clip-path="url(#pd3fe94de4d)" style="fill: #fb694a"/>
   </g>
   <g id="patch_67">
    <path d="M 774.850526 595.462447 
L 798.567273 595.462447 
L 798.567273 529.340689 
L 774.850526 529.340689 
z
" clip-path="url(#pd3fe94de4d)" style="fill: #fb6c4c"/>
   </g>
   <g id="patch_68">
    <path d="M 804.496459 595.462447 
L 828.213206 595.462447 
L 828.213206 544.173066 
L 804.496459 544.173066 
z
" clip-path="url(#pd3fe94de4d)" style="fill: #fb6d4d"/>
   </g>
   <g id="patch_69">
    <path d="M 834.142392 595.462447 
L 857.859139 595.462447 
L 857.859139 561.17196 
L 834.142392 561.17196 
z
" clip-path="url(#pd3fe94de4d)" style="fill: #fb6e4e"/>
   </g>
   <g id="patch_70">
    <path d="M 863.788325 595.462447 
L 887.505072 595.462447 
L 887.505072 552.220327 
L 863.788325 552.220327 
z
" clip-path="url(#pd3fe94de4d)" style="fill: #fb7050"/>
   </g>
   <g id="patch_71">
    <path d="M 893.434258 595.462447 
L 917.151005 595.462447 
L 917.151005 548.468193 
L 893.434258 548.468193 
z
" clip-path="url(#pd3fe94de4d)" style="fill: #fb7252"/>
   </g>
   <g id="patch_72">
    <path d="M 923.080191 595.462447 
L 946.796938 595.462447 
L 946.796938 547.021842 
L 923.080191 547.021842 
z
" clip-path="url(#pd3fe94de4d)" style="fill: #fb7353"/>
   </g>
   <g id="patch_73">
    <path d="M 952.726124 595.462447 
L 976.442871 595.462447 
L 976.442871 531.780114 
L 952.726124 531.780114 
z
" clip-path="url(#pd3fe94de4d)" style="fill: #fb7555"/>
   </g>
   <g id="patch_74">
    <path d="M 982.372057 595.462447 
L 1006.088804 595.462447 
L 1006.088804 532.189229 
L 982.372057 532.189229 
z
" clip-path="url(#pd3fe94de4d)" style="fill: #fb7656"/>
   </g>
   <g id="patch_75">
    <path d="M 1012.01799 595.462447 
L 1035.734737 595.462447 
L 1035.734737 546.08598 
L 1012.01799 546.08598 
z
" clip-path="url(#pd3fe94de4d)" style="fill: #fb7757"/>
   </g>
   <g id="patch_76">
    <path d="M 1041.663923 595.462447 
L 1065.38067 595.462447 
L 1065.38067 549.870515 
L 1041.663923 549.870515 
z
" clip-path="url(#pd3fe94de4d)" style="fill: #fb7a5a"/>
   </g>
   <g id="patch_77">
    <path d="M 1071.309856 595.462447 
L 1095.026603 595.462447 
L 1095.026603 541.077266 
L 1071.309856 541.077266 
z
" clip-path="url(#pd3fe94de4d)" style="fill: #fb7b5b"/>
   </g>
   <g id="patch_78">
    <path d="M 1100.955789 595.462447 
L 1124.672536 595.462447 
L 1124.672536 551.646824 
L 1100.955789 551.646824 
z
" clip-path="url(#pd3fe94de4d)" style="fill: #fb7c5c"/>
   </g>
   <g id="patch_79">
    <path d="M 1130.601722 595.462447 
L 1154.318469 595.462447 
L 1154.318469 552.042749 
L 1130.601722 552.042749 
z
" clip-path="url(#pd3fe94de4d)" style="fill: #fb7d5d"/>
   </g>
   <g id="patch_80">
    <path d="M 1160.247656 595.462447 
L 1183.964402 595.462447 
L 1183.964402 540.299489 
L 1160.247656 540.299489 
z
" clip-path="url(#pd3fe94de4d)" style="fill: #fc8060"/>
   </g>
   <g id="patch_81">
    <path d="M 1189.893589 595.462447 
L 1213.610335 595.462447 
L 1213.610335 556.224576 
L 1189.893589 556.224576 
z
" clip-path="url(#pd3fe94de4d)" style="fill: #fc8161"/>
   </g>
   <g id="patch_82">
    <path d="M 1219.539522 595.462447 
L 1243.256268 595.462447 
L 1243.256268 548.116227 
L 1219.539522 548.116227 
z
" clip-path="url(#pd3fe94de4d)" style="fill: #fc8262"/>
   </g>
   <g id="patch_83">
    <path d="M 1249.185455 595.462447 
L 1272.902201 595.462447 
L 1272.902201 550.799201 
L 1249.185455 550.799201 
z
" clip-path="url(#pd3fe94de4d)" style="fill: #fc8464"/>
   </g>
   <g id="patch_84">
    <path d="M 1278.831388 595.462447 
L 1302.548134 595.462447 
L 1302.548134 561.238893 
L 1278.831388 561.238893 
z
" clip-path="url(#pd3fe94de4d)" style="fill: #fc8565"/>
   </g>
   <g id="patch_85">
    <path d="M 1308.477321 595.462447 
L 1332.194067 595.462447 
L 1332.194067 557.007246 
L 1308.477321 557.007246 
z
" clip-path="url(#pd3fe94de4d)" style="fill: #fc8767"/>
   </g>
   <g id="patch_86">
    <path d="M 1338.123254 595.462447 
L 1361.84 595.462447 
L 1361.84 547.771973 
L 1338.123254 547.771973 
z
" clip-path="url(#pd3fe94de4d)" style="fill: #fc8969"/>
   </g>
   <g id="matplotlib.axis_1">
    <g id="xtick_1">
     <g id="line2d_1">
      <defs>
       <path id="m5f5f6cddfe" d="M 0 0 
L 0 3.5 
" style="stroke: #000000; stroke-width: 0.8"/>
      </defs>
      <g>
       <use xlink:href="#m5f5f6cddfe" x="134.498373" y="595.462447" style="stroke: #000000; stroke-width: 0.8"/>
      </g>
     </g>
     <g id="text_1">
      <!-- car -->
      <g transform="translate(134.350913 628.543294)rotate(-70)scale(0.15 -0.15)">
       <defs>
        <path id="DejaVuSans-63" d="M 3122 3366 
L 3122 2828 
Q 2878 2963 2633 3030 
Q 2388 3097 2138 3097 
Q 1578 3097 1268 2742 
Q 959 2388 959 1747 
Q 959 1106 1268 751 
Q 1578 397 2138 397 
Q 2388 397 2633 464 
Q 2878 531 3122 666 
L 3122 134 
Q 2881 22 2623 -34 
Q 2366 -91 2075 -91 
Q 1284 -91 818 406 
Q 353 903 353 1747 
Q 353 2603 823 3093 
Q 1294 3584 2113 3584 
Q 2378 3584 2631 3529 
Q 2884 3475 3122 3366 
z
" transform="scale(0.015625)"/>
        <path id="DejaVuSans-61" d="M 2194 1759 
Q 1497 1759 1228 1600 
Q 959 1441 959 1056 
Q 959 750 1161 570 
Q 1363 391 1709 391 
Q 2188 391 2477 730 
Q 2766 1069 2766 1631 
L 2766 1759 
L 2194 1759 
z
M 3341 1997 
L 3341 0 
L 2766 0 
L 2766 531 
Q 2569 213 2275 61 
Q 1981 -91 1556 -91 
Q 1019 -91 701 211 
Q 384 513 384 1019 
Q 384 1609 779 1909 
Q 1175 2209 1959 2209 
L 2766 2209 
L 2766 2266 
Q 2766 2663 2505 2880 
Q 2244 3097 1772 3097 
Q 1472 3097 1187 3025 
Q 903 2953 641 2809 
L 641 3341 
Q 956 3463 1253 3523 
Q 1550 3584 1831 3584 
Q 2591 3584 2966 3190 
Q 3341 2797 3341 1997 
z
" transform="scale(0.015625)"/>
        <path id="DejaVuSans-72" d="M 2631 2963 
Q 2534 3019 2420 3045 
Q 2306 3072 2169 3072 
Q 1681 3072 1420 2755 
Q 1159 2438 1159 1844 
L 1159 0 
L 581 0 
L 581 3500 
L 1159 3500 
L 1159 2956 
Q 1341 3275 1631 3429 
Q 1922 3584 2338 3584 
Q 2397 3584 2469 3576 
Q 2541 3569 2628 3553 
L 2631 2963 
z
" transform="scale(0.015625)"/>
       </defs>
       <use xlink:href="#DejaVuSans-63"/>
       <use xlink:href="#DejaVuSans-61" x="54.980469"/>
       <use xlink:href="#DejaVuSans-72" x="116.259766"/>
      </g>
     </g>
    </g>
    <g id="xtick_2">
     <g id="line2d_2">
      <g>
       <use xlink:href="#m5f5f6cddfe" x="164.144306" y="595.462447" style="stroke: #000000; stroke-width: 0.8"/>
      </g>
     </g>
     <g id="text_2">
      <!-- bicycle -->
      <g transform="translate(159.062538 655.657097)rotate(-70)scale(0.15 -0.15)">
       <defs>
        <path id="DejaVuSans-62" d="M 3116 1747 
Q 3116 2381 2855 2742 
Q 2594 3103 2138 3103 
Q 1681 3103 1420 2742 
Q 1159 2381 1159 1747 
Q 1159 1113 1420 752 
Q 1681 391 2138 391 
Q 2594 391 2855 752 
Q 3116 1113 3116 1747 
z
M 1159 2969 
Q 1341 3281 1617 3432 
Q 1894 3584 2278 3584 
Q 2916 3584 3314 3078 
Q 3713 2572 3713 1747 
Q 3713 922 3314 415 
Q 2916 -91 2278 -91 
Q 1894 -91 1617 61 
Q 1341 213 1159 525 
L 1159 0 
L 581 0 
L 581 4863 
L 1159 4863 
L 1159 2969 
z
" transform="scale(0.015625)"/>
        <path id="DejaVuSans-69" d="M 603 3500 
L 1178 3500 
L 1178 0 
L 603 0 
L 603 3500 
z
M 603 4863 
L 1178 4863 
L 1178 4134 
L 603 4134 
L 603 4863 
z
" transform="scale(0.015625)"/>
        <path id="DejaVuSans-79" d="M 2059 -325 
Q 1816 -950 1584 -1140 
Q 1353 -1331 966 -1331 
L 506 -1331 
L 506 -850 
L 844 -850 
Q 1081 -850 1212 -737 
Q 1344 -625 1503 -206 
L 1606 56 
L 191 3500 
L 800 3500 
L 1894 763 
L 2988 3500 
L 3597 3500 
L 2059 -325 
z
" transform="scale(0.015625)"/>
        <path id="DejaVuSans-6c" d="M 603 4863 
L 1178 4863 
L 1178 0 
L 603 0 
L 603 4863 
z
" transform="scale(0.015625)"/>
        <path id="DejaVuSans-65" d="M 3597 1894 
L 3597 1613 
L 953 1613 
Q 991 1019 1311 708 
Q 1631 397 2203 397 
Q 2534 397 2845 478 
Q 3156 559 3463 722 
L 3463 178 
Q 3153 47 2828 -22 
Q 2503 -91 2169 -91 
Q 1331 -91 842 396 
Q 353 884 353 1716 
Q 353 2575 817 3079 
Q 1281 3584 2069 3584 
Q 2775 3584 3186 3129 
Q 3597 2675 3597 1894 
z
M 3022 2063 
Q 3016 2534 2758 2815 
Q 2500 3097 2075 3097 
Q 1594 3097 1305 2825 
Q 1016 2553 972 2059 
L 3022 2063 
z
" transform="scale(0.015625)"/>
       </defs>
       <use xlink:href="#DejaVuSans-62"/>
       <use xlink:href="#DejaVuSans-69" x="63.476562"/>
       <use xlink:href="#DejaVuSans-63" x="91.259766"/>
       <use xlink:href="#DejaVuSans-79" x="146.240234"/>
       <use xlink:href="#DejaVuSans-63" x="205.419922"/>
       <use xlink:href="#DejaVuSans-6c" x="260.400391"/>
       <use xlink:href="#DejaVuSans-65" x="288.183594"/>
      </g>
     </g>
    </g>
    <g id="xtick_3">
     <g id="line2d_3">
      <g>
       <use xlink:href="#m5f5f6cddfe" x="193.790239" y="595.462447" style="stroke: #000000; stroke-width: 0.8"/>
      </g>
     </g>
     <g id="text_3">
      <!-- airplane -->
      <g transform="translate(187.223489 663.817006)rotate(-70)scale(0.15 -0.15)">
       <defs>
        <path id="DejaVuSans-70" d="M 1159 525 
L 1159 -1331 
L 581 -1331 
L 581 3500 
L 1159 3500 
L 1159 2969 
Q 1341 3281 1617 3432 
Q 1894 3584 2278 3584 
Q 2916 3584 3314 3078 
Q 3713 2572 3713 1747 
Q 3713 922 3314 415 
Q 2916 -91 2278 -91 
Q 1894 -91 1617 61 
Q 1341 213 1159 525 
z
M 3116 1747 
Q 3116 2381 2855 2742 
Q 2594 3103 2138 3103 
Q 1681 3103 1420 2742 
Q 1159 2381 1159 1747 
Q 1159 1113 1420 752 
Q 1681 391 2138 391 
Q 2594 391 2855 752 
Q 3116 1113 3116 1747 
z
" transform="scale(0.015625)"/>
        <path id="DejaVuSans-6e" d="M 3513 2113 
L 3513 0 
L 2938 0 
L 2938 2094 
Q 2938 2591 2744 2837 
Q 2550 3084 2163 3084 
Q 1697 3084 1428 2787 
Q 1159 2491 1159 1978 
L 1159 0 
L 581 0 
L 581 3500 
L 1159 3500 
L 1159 2956 
Q 1366 3272 1645 3428 
Q 1925 3584 2291 3584 
Q 2894 3584 3203 3211 
Q 3513 2838 3513 2113 
z
" transform="scale(0.015625)"/>
       </defs>
       <use xlink:href="#DejaVuSans-61"/>
       <use xlink:href="#DejaVuSans-69" x="61.279297"/>
       <use xlink:href="#DejaVuSans-72" x="89.0625"/>
       <use xlink:href="#DejaVuSans-70" x="130.175781"/>
       <use xlink:href="#DejaVuSans-6c" x="193.652344"/>
       <use xlink:href="#DejaVuSans-61" x="221.435547"/>
       <use xlink:href="#DejaVuSans-6e" x="282.714844"/>
       <use xlink:href="#DejaVuSans-65" x="346.09375"/>
      </g>
     </g>
    </g>
    <g id="xtick_4">
     <g id="line2d_4">
      <g>
       <use xlink:href="#m5f5f6cddfe" x="223.436172" y="595.462447" style="stroke: #000000; stroke-width: 0.8"/>
      </g>
     </g>
     <g id="text_4">
      <!-- dresser -->
      <g transform="translate(217.816524 658.612724)rotate(-70)scale(0.15 -0.15)">
       <defs>
        <path id="DejaVuSans-64" d="M 2906 2969 
L 2906 4863 
L 3481 4863 
L 3481 0 
L 2906 0 
L 2906 525 
Q 2725 213 2448 61 
Q 2172 -91 1784 -91 
Q 1150 -91 751 415 
Q 353 922 353 1747 
Q 353 2572 751 3078 
Q 1150 3584 1784 3584 
Q 2172 3584 2448 3432 
Q 2725 3281 2906 2969 
z
M 947 1747 
Q 947 1113 1208 752 
Q 1469 391 1925 391 
Q 2381 391 2643 752 
Q 2906 1113 2906 1747 
Q 2906 2381 2643 2742 
Q 2381 3103 1925 3103 
Q 1469 3103 1208 2742 
Q 947 2381 947 1747 
z
" transform="scale(0.015625)"/>
        <path id="DejaVuSans-73" d="M 2834 3397 
L 2834 2853 
Q 2591 2978 2328 3040 
Q 2066 3103 1784 3103 
Q 1356 3103 1142 2972 
Q 928 2841 928 2578 
Q 928 2378 1081 2264 
Q 1234 2150 1697 2047 
L 1894 2003 
Q 2506 1872 2764 1633 
Q 3022 1394 3022 966 
Q 3022 478 2636 193 
Q 2250 -91 1575 -91 
Q 1294 -91 989 -36 
Q 684 19 347 128 
L 347 722 
Q 666 556 975 473 
Q 1284 391 1588 391 
Q 1994 391 2212 530 
Q 2431 669 2431 922 
Q 2431 1156 2273 1281 
Q 2116 1406 1581 1522 
L 1381 1569 
Q 847 1681 609 1914 
Q 372 2147 372 2553 
Q 372 3047 722 3315 
Q 1072 3584 1716 3584 
Q 2034 3584 2315 3537 
Q 2597 3491 2834 3397 
z
" transform="scale(0.015625)"/>
       </defs>
       <use xlink:href="#DejaVuSans-64"/>
       <use xlink:href="#DejaVuSans-72" x="63.476562"/>
       <use xlink:href="#DejaVuSans-65" x="102.339844"/>
       <use xlink:href="#DejaVuSans-73" x="163.863281"/>
       <use xlink:href="#DejaVuSans-73" x="215.962891"/>
       <use xlink:href="#DejaVuSans-65" x="268.0625"/>
       <use xlink:href="#DejaVuSans-72" x="329.585938"/>
      </g>
     </g>
    </g>
    <g id="xtick_5">
     <g id="line2d_5">
      <g>
       <use xlink:href="#m5f5f6cddfe" x="253.082105" y="595.462447" style="stroke: #000000; stroke-width: 0.8"/>
      </g>
     </g>
     <g id="text_5">
      <!-- cabinet -->
      <g transform="translate(247.438408 658.744868)rotate(-70)scale(0.15 -0.15)">
       <defs>
        <path id="DejaVuSans-74" d="M 1172 4494 
L 1172 3500 
L 2356 3500 
L 2356 3053 
L 1172 3053 
L 1172 1153 
Q 1172 725 1289 603 
Q 1406 481 1766 481 
L 2356 481 
L 2356 0 
L 1766 0 
Q 1100 0 847 248 
Q 594 497 594 1153 
L 594 3053 
L 172 3053 
L 172 3500 
L 594 3500 
L 594 4494 
L 1172 4494 
z
" transform="scale(0.015625)"/>
       </defs>
       <use xlink:href="#DejaVuSans-63"/>
       <use xlink:href="#DejaVuSans-61" x="54.980469"/>
       <use xlink:href="#DejaVuSans-62" x="116.259766"/>
       <use xlink:href="#DejaVuSans-69" x="179.736328"/>
       <use xlink:href="#DejaVuSans-6e" x="207.519531"/>
       <use xlink:href="#DejaVuSans-65" x="270.898438"/>
       <use xlink:href="#DejaVuSans-74" x="332.421875"/>
      </g>
     </g>
    </g>
    <g id="xtick_6">
     <g id="line2d_6">
      <g>
       <use xlink:href="#m5f5f6cddfe" x="282.728038" y="595.462447" style="stroke: #000000; stroke-width: 0.8"/>
      </g>
     </g>
     <g id="text_6">
      <!-- dishwasher -->
      <g transform="translate(272.049831 686.409272)rotate(-70)scale(0.15 -0.15)">
       <defs>
        <path id="DejaVuSans-68" d="M 3513 2113 
L 3513 0 
L 2938 0 
L 2938 2094 
Q 2938 2591 2744 2837 
Q 2550 3084 2163 3084 
Q 1697 3084 1428 2787 
Q 1159 2491 1159 1978 
L 1159 0 
L 581 0 
L 581 4863 
L 1159 4863 
L 1159 2956 
Q 1366 3272 1645 3428 
Q 1925 3584 2291 3584 
Q 2894 3584 3203 3211 
Q 3513 2838 3513 2113 
z
" transform="scale(0.015625)"/>
        <path id="DejaVuSans-77" d="M 269 3500 
L 844 3500 
L 1563 769 
L 2278 3500 
L 2956 3500 
L 3675 769 
L 4391 3500 
L 4966 3500 
L 4050 0 
L 3372 0 
L 2619 2869 
L 1863 0 
L 1184 0 
L 269 3500 
z
" transform="scale(0.015625)"/>
       </defs>
       <use xlink:href="#DejaVuSans-64"/>
       <use xlink:href="#DejaVuSans-69" x="63.476562"/>
       <use xlink:href="#DejaVuSans-73" x="91.259766"/>
       <use xlink:href="#DejaVuSans-68" x="143.359375"/>
       <use xlink:href="#DejaVuSans-77" x="206.738281"/>
       <use xlink:href="#DejaVuSans-61" x="288.525391"/>
       <use xlink:href="#DejaVuSans-73" x="349.804688"/>
       <use xlink:href="#DejaVuSans-68" x="401.904297"/>
       <use xlink:href="#DejaVuSans-65" x="465.283203"/>
       <use xlink:href="#DejaVuSans-72" x="526.806641"/>
      </g>
     </g>
    </g>
    <g id="xtick_7">
     <g id="line2d_7">
      <g>
       <use xlink:href="#m5f5f6cddfe" x="312.373971" y="595.462447" style="stroke: #000000; stroke-width: 0.8"/>
      </g>
     </g>
     <g id="text_7">
      <!-- sports table -->
      <g transform="translate(301.020408 690.120324)rotate(-70)scale(0.15 -0.15)">
       <defs>
        <path id="DejaVuSans-6f" d="M 1959 3097 
Q 1497 3097 1228 2736 
Q 959 2375 959 1747 
Q 959 1119 1226 758 
Q 1494 397 1959 397 
Q 2419 397 2687 759 
Q 2956 1122 2956 1747 
Q 2956 2369 2687 2733 
Q 2419 3097 1959 3097 
z
M 1959 3584 
Q 2709 3584 3137 3096 
Q 3566 2609 3566 1747 
Q 3566 888 3137 398 
Q 2709 -91 1959 -91 
Q 1206 -91 779 398 
Q 353 888 353 1747 
Q 353 2609 779 3096 
Q 1206 3584 1959 3584 
z
" transform="scale(0.015625)"/>
        <path id="DejaVuSans-20" transform="scale(0.015625)"/>
       </defs>
       <use xlink:href="#DejaVuSans-73"/>
       <use xlink:href="#DejaVuSans-70" x="52.099609"/>
       <use xlink:href="#DejaVuSans-6f" x="115.576172"/>
       <use xlink:href="#DejaVuSans-72" x="176.757812"/>
       <use xlink:href="#DejaVuSans-74" x="217.871094"/>
       <use xlink:href="#DejaVuSans-73" x="257.080078"/>
       <use xlink:href="#DejaVuSans-20" x="309.179688"/>
       <use xlink:href="#DejaVuSans-74" x="340.966797"/>
       <use xlink:href="#DejaVuSans-61" x="380.175781"/>
       <use xlink:href="#DejaVuSans-62" x="441.455078"/>
       <use xlink:href="#DejaVuSans-6c" x="504.931641"/>
       <use xlink:href="#DejaVuSans-65" x="532.714844"/>
      </g>
     </g>
    </g>
    <g id="xtick_8">
     <g id="line2d_8">
      <g>
       <use xlink:href="#m5f5f6cddfe" x="342.019904" y="595.462447" style="stroke: #000000; stroke-width: 0.8"/>
      </g>
     </g>
     <g id="text_8">
      <!-- parasol -->
      <g transform="translate(336.463984 658.262541)rotate(-70)scale(0.15 -0.15)">
       <use xlink:href="#DejaVuSans-70"/>
       <use xlink:href="#DejaVuSans-61" x="63.476562"/>
       <use xlink:href="#DejaVuSans-72" x="124.755859"/>
       <use xlink:href="#DejaVuSans-61" x="165.869141"/>
       <use xlink:href="#DejaVuSans-73" x="227.148438"/>
       <use xlink:href="#DejaVuSans-6f" x="279.248047"/>
       <use xlink:href="#DejaVuSans-6c" x="340.429688"/>
      </g>
     </g>
    </g>
    <g id="xtick_9">
     <g id="line2d_9">
      <g>
       <use xlink:href="#m5f5f6cddfe" x="371.665837" y="595.462447" style="stroke: #000000; stroke-width: 0.8"/>
      </g>
     </g>
     <g id="text_9">
      <!-- shower -->
      <g transform="translate(366.293084 657.256043)rotate(-70)scale(0.15 -0.15)">
       <use xlink:href="#DejaVuSans-73"/>
       <use xlink:href="#DejaVuSans-68" x="52.099609"/>
       <use xlink:href="#DejaVuSans-6f" x="115.478516"/>
       <use xlink:href="#DejaVuSans-77" x="176.660156"/>
       <use xlink:href="#DejaVuSans-65" x="258.447266"/>
       <use xlink:href="#DejaVuSans-72" x="319.970703"/>
      </g>
     </g>
    </g>
    <g id="xtick_10">
     <g id="line2d_10">
      <g>
       <use xlink:href="#m5f5f6cddfe" x="401.31177" y="595.462447" style="stroke: #000000; stroke-width: 0.8"/>
      </g>
     </g>
     <g id="text_10">
      <!-- bed -->
      <g transform="translate(400.365907 632.930484)rotate(-70)scale(0.15 -0.15)">
       <use xlink:href="#DejaVuSans-62"/>
       <use xlink:href="#DejaVuSans-65" x="63.476562"/>
       <use xlink:href="#DejaVuSans-64" x="125"/>
      </g>
     </g>
    </g>
    <g id="xtick_11">
     <g id="line2d_11">
      <g>
       <use xlink:href="#m5f5f6cddfe" x="430.957703" y="595.462447" style="stroke: #000000; stroke-width: 0.8"/>
      </g>
     </g>
     <g id="text_11">
      <!-- fan -->
      <g transform="translate(430.746515 628.893476)rotate(-70)scale(0.15 -0.15)">
       <defs>
        <path id="DejaVuSans-66" d="M 2375 4863 
L 2375 4384 
L 1825 4384 
Q 1516 4384 1395 4259 
Q 1275 4134 1275 3809 
L 1275 3500 
L 2222 3500 
L 2222 3053 
L 1275 3053 
L 1275 0 
L 697 0 
L 697 3053 
L 147 3053 
L 147 3500 
L 697 3500 
L 697 3744 
Q 697 4328 969 4595 
Q 1241 4863 1831 4863 
L 2375 4863 
z
" transform="scale(0.015625)"/>
       </defs>
       <use xlink:href="#DejaVuSans-66"/>
       <use xlink:href="#DejaVuSans-61" x="35.205078"/>
       <use xlink:href="#DejaVuSans-6e" x="96.484375"/>
      </g>
     </g>
    </g>
    <g id="xtick_12">
     <g id="line2d_12">
      <g>
       <use xlink:href="#m5f5f6cddfe" x="460.603636" y="595.462447" style="stroke: #000000; stroke-width: 0.8"/>
      </g>
     </g>
     <g id="text_12">
      <!-- lamp -->
      <g transform="translate(458.081408 641.592541)rotate(-70)scale(0.15 -0.15)">
       <defs>
        <path id="DejaVuSans-6d" d="M 3328 2828 
Q 3544 3216 3844 3400 
Q 4144 3584 4550 3584 
Q 5097 3584 5394 3201 
Q 5691 2819 5691 2113 
L 5691 0 
L 5113 0 
L 5113 2094 
Q 5113 2597 4934 2840 
Q 4756 3084 4391 3084 
Q 3944 3084 3684 2787 
Q 3425 2491 3425 1978 
L 3425 0 
L 2847 0 
L 2847 2094 
Q 2847 2600 2669 2842 
Q 2491 3084 2119 3084 
Q 1678 3084 1418 2786 
Q 1159 2488 1159 1978 
L 1159 0 
L 581 0 
L 581 3500 
L 1159 3500 
L 1159 2956 
Q 1356 3278 1631 3431 
Q 1906 3584 2284 3584 
Q 2666 3584 2933 3390 
Q 3200 3197 3328 2828 
z
" transform="scale(0.015625)"/>
       </defs>
       <use xlink:href="#DejaVuSans-6c"/>
       <use xlink:href="#DejaVuSans-61" x="27.783203"/>
       <use xlink:href="#DejaVuSans-6d" x="89.0625"/>
       <use xlink:href="#DejaVuSans-70" x="186.474609"/>
      </g>
     </g>
    </g>
    <g id="xtick_13">
     <g id="line2d_13">
      <g>
       <use xlink:href="#m5f5f6cddfe" x="490.249569" y="595.462447" style="stroke: #000000; stroke-width: 0.8"/>
      </g>
     </g>
     <g id="text_13">
      <!-- love seat -->
      <g transform="translate(482.452749 670.576185)rotate(-70)scale(0.15 -0.15)">
       <defs>
        <path id="DejaVuSans-76" d="M 191 3500 
L 800 3500 
L 1894 563 
L 2988 3500 
L 3597 3500 
L 2284 0 
L 1503 0 
L 191 3500 
z
" transform="scale(0.015625)"/>
       </defs>
       <use xlink:href="#DejaVuSans-6c"/>
       <use xlink:href="#DejaVuSans-6f" x="27.783203"/>
       <use xlink:href="#DejaVuSans-76" x="88.964844"/>
       <use xlink:href="#DejaVuSans-65" x="148.144531"/>
       <use xlink:href="#DejaVuSans-20" x="209.667969"/>
       <use xlink:href="#DejaVuSans-73" x="241.455078"/>
       <use xlink:href="#DejaVuSans-65" x="293.554688"/>
       <use xlink:href="#DejaVuSans-61" x="355.078125"/>
       <use xlink:href="#DejaVuSans-74" x="416.357422"/>
      </g>
     </g>
    </g>
    <g id="xtick_14">
     <g id="line2d_14">
      <g>
       <use xlink:href="#m5f5f6cddfe" x="519.895502" y="595.462447" style="stroke: #000000; stroke-width: 0.8"/>
      </g>
     </g>
     <g id="text_14">
      <!-- sofa -->
      <g transform="translate(518.404144 635.927957)rotate(-70)scale(0.15 -0.15)">
       <use xlink:href="#DejaVuSans-73"/>
       <use xlink:href="#DejaVuSans-6f" x="52.099609"/>
       <use xlink:href="#DejaVuSans-66" x="113.28125"/>
       <use xlink:href="#DejaVuSans-61" x="148.486328"/>
      </g>
     </g>
    </g>
    <g id="xtick_15">
     <g id="line2d_15">
      <g>
       <use xlink:href="#m5f5f6cddfe" x="549.541435" y="595.462447" style="stroke: #000000; stroke-width: 0.8"/>
      </g>
     </g>
     <g id="text_15">
      <!-- trolley -->
      <g transform="translate(545.337029 650.836033)rotate(-70)scale(0.15 -0.15)">
       <use xlink:href="#DejaVuSans-74"/>
       <use xlink:href="#DejaVuSans-72" x="39.208984"/>
       <use xlink:href="#DejaVuSans-6f" x="78.072266"/>
       <use xlink:href="#DejaVuSans-6c" x="139.253906"/>
       <use xlink:href="#DejaVuSans-6c" x="167.037109"/>
       <use xlink:href="#DejaVuSans-65" x="194.820312"/>
       <use xlink:href="#DejaVuSans-79" x="256.34375"/>
      </g>
     </g>
    </g>
    <g id="xtick_16">
     <g id="line2d_16">
      <g>
       <use xlink:href="#m5f5f6cddfe" x="579.187368" y="595.462447" style="stroke: #000000; stroke-width: 0.8"/>
      </g>
     </g>
     <g id="text_16">
      <!-- bird house -->
      <g transform="translate(569.546845 680.707246)rotate(-70)scale(0.15 -0.15)">
       <defs>
        <path id="DejaVuSans-75" d="M 544 1381 
L 544 3500 
L 1119 3500 
L 1119 1403 
Q 1119 906 1312 657 
Q 1506 409 1894 409 
Q 2359 409 2629 706 
Q 2900 1003 2900 1516 
L 2900 3500 
L 3475 3500 
L 3475 0 
L 2900 0 
L 2900 538 
Q 2691 219 2414 64 
Q 2138 -91 1772 -91 
Q 1169 -91 856 284 
Q 544 659 544 1381 
z
M 1991 3584 
L 1991 3584 
z
" transform="scale(0.015625)"/>
       </defs>
       <use xlink:href="#DejaVuSans-62"/>
       <use xlink:href="#DejaVuSans-69" x="63.476562"/>
       <use xlink:href="#DejaVuSans-72" x="91.259766"/>
       <use xlink:href="#DejaVuSans-64" x="130.623047"/>
       <use xlink:href="#DejaVuSans-20" x="194.099609"/>
       <use xlink:href="#DejaVuSans-68" x="225.886719"/>
       <use xlink:href="#DejaVuSans-6f" x="289.265625"/>
       <use xlink:href="#DejaVuSans-75" x="350.447266"/>
       <use xlink:href="#DejaVuSans-73" x="413.826172"/>
       <use xlink:href="#DejaVuSans-65" x="465.925781"/>
      </g>
     </g>
    </g>
    <g id="xtick_17">
     <g id="line2d_17">
      <g>
       <use xlink:href="#m5f5f6cddfe" x="608.833301" y="595.462447" style="stroke: #000000; stroke-width: 0.8"/>
      </g>
     </g>
     <g id="text_17">
      <!-- clock -->
      <g transform="translate(606.134318 642.563802)rotate(-70)scale(0.15 -0.15)">
       <defs>
        <path id="DejaVuSans-6b" d="M 581 4863 
L 1159 4863 
L 1159 1991 
L 2875 3500 
L 3609 3500 
L 1753 1863 
L 3688 0 
L 2938 0 
L 1159 1709 
L 1159 0 
L 581 0 
L 581 4863 
z
" transform="scale(0.015625)"/>
       </defs>
       <use xlink:href="#DejaVuSans-63"/>
       <use xlink:href="#DejaVuSans-6c" x="54.980469"/>
       <use xlink:href="#DejaVuSans-6f" x="82.763672"/>
       <use xlink:href="#DejaVuSans-63" x="143.945312"/>
       <use xlink:href="#DejaVuSans-6b" x="198.925781"/>
      </g>
     </g>
    </g>
    <g id="xtick_18">
     <g id="line2d_18">
      <g>
       <use xlink:href="#m5f5f6cddfe" x="638.479234" y="595.462447" style="stroke: #000000; stroke-width: 0.8"/>
      </g>
     </g>
     <g id="text_18">
      <!-- chair -->
      <g transform="translate(635.993479 641.392122)rotate(-70)scale(0.15 -0.15)">
       <use xlink:href="#DejaVuSans-63"/>
       <use xlink:href="#DejaVuSans-68" x="54.980469"/>
       <use xlink:href="#DejaVuSans-61" x="118.359375"/>
       <use xlink:href="#DejaVuSans-69" x="179.638672"/>
       <use xlink:href="#DejaVuSans-72" x="207.421875"/>
      </g>
     </g>
    </g>
    <g id="xtick_19">
     <g id="line2d_19">
      <g>
       <use xlink:href="#m5f5f6cddfe" x="668.125167" y="595.462447" style="stroke: #000000; stroke-width: 0.8"/>
      </g>
     </g>
     <g id="text_19">
      <!-- bbq grill -->
      <g transform="translate(661.493086 664.175998)rotate(-70)scale(0.15 -0.15)">
       <defs>
        <path id="DejaVuSans-71" d="M 947 1747 
Q 947 1113 1208 752 
Q 1469 391 1925 391 
Q 2381 391 2643 752 
Q 2906 1113 2906 1747 
Q 2906 2381 2643 2742 
Q 2381 3103 1925 3103 
Q 1469 3103 1208 2742 
Q 947 2381 947 1747 
z
M 2906 525 
Q 2725 213 2448 61 
Q 2172 -91 1784 -91 
Q 1150 -91 751 415 
Q 353 922 353 1747 
Q 353 2572 751 3078 
Q 1150 3584 1784 3584 
Q 2172 3584 2448 3432 
Q 2725 3281 2906 2969 
L 2906 3500 
L 3481 3500 
L 3481 -1331 
L 2906 -1331 
L 2906 525 
z
" transform="scale(0.015625)"/>
        <path id="DejaVuSans-67" d="M 2906 1791 
Q 2906 2416 2648 2759 
Q 2391 3103 1925 3103 
Q 1463 3103 1205 2759 
Q 947 2416 947 1791 
Q 947 1169 1205 825 
Q 1463 481 1925 481 
Q 2391 481 2648 825 
Q 2906 1169 2906 1791 
z
M 3481 434 
Q 3481 -459 3084 -895 
Q 2688 -1331 1869 -1331 
Q 1566 -1331 1297 -1286 
Q 1028 -1241 775 -1147 
L 775 -588 
Q 1028 -725 1275 -790 
Q 1522 -856 1778 -856 
Q 2344 -856 2625 -561 
Q 2906 -266 2906 331 
L 2906 616 
Q 2728 306 2450 153 
Q 2172 0 1784 0 
Q 1141 0 747 490 
Q 353 981 353 1791 
Q 353 2603 747 3093 
Q 1141 3584 1784 3584 
Q 2172 3584 2450 3431 
Q 2728 3278 2906 2969 
L 2906 3500 
L 3481 3500 
L 3481 434 
z
" transform="scale(0.015625)"/>
       </defs>
       <use xlink:href="#DejaVuSans-62"/>
       <use xlink:href="#DejaVuSans-62" x="63.476562"/>
       <use xlink:href="#DejaVuSans-71" x="126.953125"/>
       <use xlink:href="#DejaVuSans-20" x="190.429688"/>
       <use xlink:href="#DejaVuSans-67" x="222.216797"/>
       <use xlink:href="#DejaVuSans-72" x="285.693359"/>
       <use xlink:href="#DejaVuSans-69" x="326.806641"/>
       <use xlink:href="#DejaVuSans-6c" x="354.589844"/>
       <use xlink:href="#DejaVuSans-6c" x="382.373047"/>
      </g>
     </g>
    </g>
    <g id="xtick_20">
     <g id="line2d_20">
      <g>
       <use xlink:href="#m5f5f6cddfe" x="697.7711" y="595.462447" style="stroke: #000000; stroke-width: 0.8"/>
      </g>
     </g>
     <g id="text_20">
      <!-- sinks -->
      <g transform="translate(695.164302 642.057248)rotate(-70)scale(0.15 -0.15)">
       <use xlink:href="#DejaVuSans-73"/>
       <use xlink:href="#DejaVuSans-69" x="52.099609"/>
       <use xlink:href="#DejaVuSans-6e" x="79.882812"/>
       <use xlink:href="#DejaVuSans-6b" x="143.261719"/>
       <use xlink:href="#DejaVuSans-73" x="201.171875"/>
      </g>
     </g>
    </g>
    <g id="xtick_21">
     <g id="line2d_21">
      <g>
       <use xlink:href="#m5f5f6cddfe" x="727.417033" y="595.462447" style="stroke: #000000; stroke-width: 0.8"/>
      </g>
     </g>
     <g id="text_21">
      <!-- skateboard -->
      <g transform="translate(716.965682 685.162711)rotate(-70)scale(0.15 -0.15)">
       <use xlink:href="#DejaVuSans-73"/>
       <use xlink:href="#DejaVuSans-6b" x="52.099609"/>
       <use xlink:href="#DejaVuSans-61" x="108.259766"/>
       <use xlink:href="#DejaVuSans-74" x="169.539062"/>
       <use xlink:href="#DejaVuSans-65" x="208.748047"/>
       <use xlink:href="#DejaVuSans-62" x="270.271484"/>
       <use xlink:href="#DejaVuSans-6f" x="333.748047"/>
       <use xlink:href="#DejaVuSans-61" x="394.929688"/>
       <use xlink:href="#DejaVuSans-72" x="456.208984"/>
       <use xlink:href="#DejaVuSans-64" x="495.572266"/>
      </g>
     </g>
    </g>
    <g id="xtick_22">
     <g id="line2d_22">
      <g>
       <use xlink:href="#m5f5f6cddfe" x="757.062967" y="595.462447" style="stroke: #000000; stroke-width: 0.8"/>
      </g>
     </g>
     <g id="text_22">
      <!-- gazebo -->
      <g transform="translate(751.629291 657.590808)rotate(-70)scale(0.15 -0.15)">
       <defs>
        <path id="DejaVuSans-7a" d="M 353 3500 
L 3084 3500 
L 3084 2975 
L 922 459 
L 3084 459 
L 3084 0 
L 275 0 
L 275 525 
L 2438 3041 
L 353 3041 
L 353 3500 
z
" transform="scale(0.015625)"/>
       </defs>
       <use xlink:href="#DejaVuSans-67"/>
       <use xlink:href="#DejaVuSans-61" x="63.476562"/>
       <use xlink:href="#DejaVuSans-7a" x="124.755859"/>
       <use xlink:href="#DejaVuSans-65" x="177.246094"/>
       <use xlink:href="#DejaVuSans-62" x="238.769531"/>
       <use xlink:href="#DejaVuSans-6f" x="302.246094"/>
      </g>
     </g>
    </g>
    <g id="xtick_23">
     <g id="line2d_23">
      <g>
       <use xlink:href="#m5f5f6cddfe" x="786.7089" y="595.462447" style="stroke: #000000; stroke-width: 0.8"/>
      </g>
     </g>
     <g id="text_23">
      <!-- sun lounger -->
      <g transform="translate(775.400628 689.871452)rotate(-70)scale(0.15 -0.15)">
       <use xlink:href="#DejaVuSans-73"/>
       <use xlink:href="#DejaVuSans-75" x="52.099609"/>
       <use xlink:href="#DejaVuSans-6e" x="115.478516"/>
       <use xlink:href="#DejaVuSans-20" x="178.857422"/>
       <use xlink:href="#DejaVuSans-6c" x="210.644531"/>
       <use xlink:href="#DejaVuSans-6f" x="238.427734"/>
       <use xlink:href="#DejaVuSans-75" x="299.609375"/>
       <use xlink:href="#DejaVuSans-6e" x="362.988281"/>
       <use xlink:href="#DejaVuSans-67" x="426.367188"/>
       <use xlink:href="#DejaVuSans-65" x="489.84375"/>
       <use xlink:href="#DejaVuSans-72" x="551.367188"/>
      </g>
     </g>
    </g>
    <g id="xtick_24">
     <g id="line2d_24">
      <g>
       <use xlink:href="#m5f5f6cddfe" x="816.354833" y="595.462447" style="stroke: #000000; stroke-width: 0.8"/>
      </g>
     </g>
     <g id="text_24">
      <!-- stool -->
      <g transform="translate(814.050642 640.394433)rotate(-70)scale(0.15 -0.15)">
       <use xlink:href="#DejaVuSans-73"/>
       <use xlink:href="#DejaVuSans-74" x="52.099609"/>
       <use xlink:href="#DejaVuSans-6f" x="91.308594"/>
       <use xlink:href="#DejaVuSans-6f" x="152.490234"/>
       <use xlink:href="#DejaVuSans-6c" x="213.671875"/>
      </g>
     </g>
    </g>
    <g id="xtick_25">
     <g id="line2d_25">
      <g>
       <use xlink:href="#m5f5f6cddfe" x="846.000766" y="595.462447" style="stroke: #000000; stroke-width: 0.8"/>
      </g>
     </g>
     <g id="text_25">
      <!-- boat -->
      <g transform="translate(844.114614 638.097325)rotate(-70)scale(0.15 -0.15)">
       <use xlink:href="#DejaVuSans-62"/>
       <use xlink:href="#DejaVuSans-6f" x="63.476562"/>
       <use xlink:href="#DejaVuSans-61" x="124.658203"/>
       <use xlink:href="#DejaVuSans-74" x="185.9375"/>
      </g>
     </g>
    </g>
    <g id="xtick_26">
     <g id="line2d_26">
      <g>
       <use xlink:href="#m5f5f6cddfe" x="875.646699" y="595.462447" style="stroke: #000000; stroke-width: 0.8"/>
      </g>
     </g>
     <g id="text_26">
      <!-- faucet -->
      <g transform="translate(871.441089 650.84264)rotate(-70)scale(0.15 -0.15)">
       <use xlink:href="#DejaVuSans-66"/>
       <use xlink:href="#DejaVuSans-61" x="35.205078"/>
       <use xlink:href="#DejaVuSans-75" x="96.484375"/>
       <use xlink:href="#DejaVuSans-63" x="159.863281"/>
       <use xlink:href="#DejaVuSans-65" x="214.84375"/>
       <use xlink:href="#DejaVuSans-74" x="276.367188"/>
      </g>
     </g>
    </g>
    <g id="xtick_27">
     <g id="line2d_27">
      <g>
       <use xlink:href="#m5f5f6cddfe" x="905.292632" y="595.462447" style="stroke: #000000; stroke-width: 0.8"/>
      </g>
     </g>
     <g id="text_27">
      <!-- table -->
      <g transform="translate(902.685031 642.061653)rotate(-70)scale(0.15 -0.15)">
       <use xlink:href="#DejaVuSans-74"/>
       <use xlink:href="#DejaVuSans-61" x="39.208984"/>
       <use xlink:href="#DejaVuSans-62" x="100.488281"/>
       <use xlink:href="#DejaVuSans-6c" x="163.964844"/>
       <use xlink:href="#DejaVuSans-65" x="191.748047"/>
      </g>
     </g>
    </g>
    <g id="xtick_28">
     <g id="line2d_28">
      <g>
       <use xlink:href="#m5f5f6cddfe" x="934.938565" y="595.462447" style="stroke: #000000; stroke-width: 0.8"/>
      </g>
     </g>
     <g id="text_28">
      <!-- shelf -->
      <g transform="translate(932.672049 640.187407)rotate(-70)scale(0.15 -0.15)">
       <use xlink:href="#DejaVuSans-73"/>
       <use xlink:href="#DejaVuSans-68" x="52.099609"/>
       <use xlink:href="#DejaVuSans-65" x="115.478516"/>
       <use xlink:href="#DejaVuSans-6c" x="177.001953"/>
       <use xlink:href="#DejaVuSans-66" x="204.785156"/>
      </g>
     </g>
    </g>
    <g id="xtick_29">
     <g id="line2d_29">
      <g>
       <use xlink:href="#m5f5f6cddfe" x="964.584498" y="595.462447" style="stroke: #000000; stroke-width: 0.8"/>
      </g>
     </g>
     <g id="text_29">
      <!-- toilet -->
      <g transform="translate(961.889522 642.541778)rotate(-70)scale(0.15 -0.15)">
       <use xlink:href="#DejaVuSans-74"/>
       <use xlink:href="#DejaVuSans-6f" x="39.208984"/>
       <use xlink:href="#DejaVuSans-69" x="100.390625"/>
       <use xlink:href="#DejaVuSans-6c" x="128.173828"/>
       <use xlink:href="#DejaVuSans-65" x="155.957031"/>
       <use xlink:href="#DejaVuSans-74" x="217.480469"/>
      </g>
     </g>
    </g>
    <g id="xtick_30">
     <g id="line2d_30">
      <g>
       <use xlink:href="#m5f5f6cddfe" x="994.230431" y="595.462447" style="stroke: #000000; stroke-width: 0.8"/>
      </g>
     </g>
     <g id="text_30">
      <!-- coat rack -->
      <g transform="translate(986.224791 671.723638)rotate(-70)scale(0.15 -0.15)">
       <use xlink:href="#DejaVuSans-63"/>
       <use xlink:href="#DejaVuSans-6f" x="54.980469"/>
       <use xlink:href="#DejaVuSans-61" x="116.162109"/>
       <use xlink:href="#DejaVuSans-74" x="177.441406"/>
       <use xlink:href="#DejaVuSans-20" x="216.650391"/>
       <use xlink:href="#DejaVuSans-72" x="248.4375"/>
       <use xlink:href="#DejaVuSans-61" x="289.550781"/>
       <use xlink:href="#DejaVuSans-63" x="350.830078"/>
       <use xlink:href="#DejaVuSans-6b" x="405.810547"/>
      </g>
     </g>
    </g>
    <g id="xtick_31">
     <g id="line2d_31">
      <g>
       <use xlink:href="#m5f5f6cddfe" x="1023.876364" y="595.462447" style="stroke: #000000; stroke-width: 0.8"/>
      </g>
     </g>
     <g id="text_31">
      <!-- bench -->
      <g transform="translate(1019.897209 649.598282)rotate(-70)scale(0.15 -0.15)">
       <use xlink:href="#DejaVuSans-62"/>
       <use xlink:href="#DejaVuSans-65" x="63.476562"/>
       <use xlink:href="#DejaVuSans-6e" x="125"/>
       <use xlink:href="#DejaVuSans-63" x="188.378906"/>
       <use xlink:href="#DejaVuSans-68" x="243.359375"/>
      </g>
     </g>
    </g>
    <g id="xtick_32">
     <g id="line2d_32">
      <g>
       <use xlink:href="#m5f5f6cddfe" x="1053.522297" y="595.462447" style="stroke: #000000; stroke-width: 0.8"/>
      </g>
     </g>
     <g id="text_32">
      <!-- bag -->
      <g transform="translate(1052.582846 632.895245)rotate(-70)scale(0.15 -0.15)">
       <use xlink:href="#DejaVuSans-62"/>
       <use xlink:href="#DejaVuSans-61" x="63.476562"/>
       <use xlink:href="#DejaVuSans-67" x="124.755859"/>
      </g>
     </g>
    </g>
    <g id="xtick_33">
     <g id="line2d_33">
      <g>
       <use xlink:href="#m5f5f6cddfe" x="1083.16823" y="595.462447" style="stroke: #000000; stroke-width: 0.8"/>
      </g>
     </g>
     <g id="text_33">
      <!-- curtain -->
      <g transform="translate(1078.05119 655.850908)rotate(-70)scale(0.15 -0.15)">
       <use xlink:href="#DejaVuSans-63"/>
       <use xlink:href="#DejaVuSans-75" x="54.980469"/>
       <use xlink:href="#DejaVuSans-72" x="118.359375"/>
       <use xlink:href="#DejaVuSans-74" x="159.472656"/>
       <use xlink:href="#DejaVuSans-61" x="198.681641"/>
       <use xlink:href="#DejaVuSans-69" x="259.960938"/>
       <use xlink:href="#DejaVuSans-6e" x="287.744141"/>
      </g>
     </g>
    </g>
    <g id="xtick_34">
     <g id="line2d_34">
      <g>
       <use xlink:href="#m5f5f6cddfe" x="1112.814163" y="595.462447" style="stroke: #000000; stroke-width: 0.8"/>
      </g>
     </g>
     <g id="text_34">
      <!-- ladder -->
      <g transform="translate(1108.529194 651.278716)rotate(-70)scale(0.15 -0.15)">
       <use xlink:href="#DejaVuSans-6c"/>
       <use xlink:href="#DejaVuSans-61" x="27.783203"/>
       <use xlink:href="#DejaVuSans-64" x="89.0625"/>
       <use xlink:href="#DejaVuSans-64" x="152.539062"/>
       <use xlink:href="#DejaVuSans-65" x="216.015625"/>
       <use xlink:href="#DejaVuSans-72" x="277.539062"/>
      </g>
     </g>
    </g>
    <g id="xtick_35">
     <g id="line2d_35">
      <g>
       <use xlink:href="#m5f5f6cddfe" x="1142.460096" y="595.462447" style="stroke: #000000; stroke-width: 0.8"/>
      </g>
     </g>
     <g id="text_35">
      <!-- candle holder -->
      <g transform="translate(1128.837576 702.588136)rotate(-70)scale(0.15 -0.15)">
       <use xlink:href="#DejaVuSans-63"/>
       <use xlink:href="#DejaVuSans-61" x="54.980469"/>
       <use xlink:href="#DejaVuSans-6e" x="116.259766"/>
       <use xlink:href="#DejaVuSans-64" x="179.638672"/>
       <use xlink:href="#DejaVuSans-6c" x="243.115234"/>
       <use xlink:href="#DejaVuSans-65" x="270.898438"/>
       <use xlink:href="#DejaVuSans-20" x="332.421875"/>
       <use xlink:href="#DejaVuSans-68" x="364.208984"/>
       <use xlink:href="#DejaVuSans-6f" x="427.587891"/>
       <use xlink:href="#DejaVuSans-6c" x="488.769531"/>
       <use xlink:href="#DejaVuSans-64" x="516.552734"/>
       <use xlink:href="#DejaVuSans-65" x="580.029297"/>
       <use xlink:href="#DejaVuSans-72" x="641.552734"/>
      </g>
     </g>
    </g>
    <g id="xtick_36">
     <g id="line2d_36">
      <g>
       <use xlink:href="#m5f5f6cddfe" x="1172.106029" y="595.462447" style="stroke: #000000; stroke-width: 0.8"/>
      </g>
     </g>
     <g id="text_36">
      <!-- planter -->
      <g transform="translate(1166.818246 656.789133)rotate(-70)scale(0.15 -0.15)">
       <use xlink:href="#DejaVuSans-70"/>
       <use xlink:href="#DejaVuSans-6c" x="63.476562"/>
       <use xlink:href="#DejaVuSans-61" x="91.259766"/>
       <use xlink:href="#DejaVuSans-6e" x="152.539062"/>
       <use xlink:href="#DejaVuSans-74" x="215.917969"/>
       <use xlink:href="#DejaVuSans-65" x="255.126953"/>
       <use xlink:href="#DejaVuSans-72" x="316.650391"/>
      </g>
     </g>
    </g>
    <g id="xtick_37">
     <g id="line2d_37">
      <g>
       <use xlink:href="#m5f5f6cddfe" x="1201.751962" y="595.462447" style="stroke: #000000; stroke-width: 0.8"/>
      </g>
     </g>
     <g id="text_37">
      <!-- basket -->
      <g transform="translate(1197.128313 653.139748)rotate(-70)scale(0.15 -0.15)">
       <use xlink:href="#DejaVuSans-62"/>
       <use xlink:href="#DejaVuSans-61" x="63.476562"/>
       <use xlink:href="#DejaVuSans-73" x="124.755859"/>
       <use xlink:href="#DejaVuSans-6b" x="176.855469"/>
       <use xlink:href="#DejaVuSans-65" x="231.140625"/>
       <use xlink:href="#DejaVuSans-74" x="292.664062"/>
      </g>
     </g>
    </g>
    <g id="xtick_38">
     <g id="line2d_38">
      <g>
       <use xlink:href="#m5f5f6cddfe" x="1231.397895" y="595.462447" style="stroke: #000000; stroke-width: 0.8"/>
      </g>
     </g>
     <g id="text_38">
      <!-- jug -->
      <g transform="translate(1231.320576 628.157873)rotate(-70)scale(0.15 -0.15)">
       <defs>
        <path id="DejaVuSans-6a" d="M 603 3500 
L 1178 3500 
L 1178 -63 
Q 1178 -731 923 -1031 
Q 669 -1331 103 -1331 
L -116 -1331 
L -116 -844 
L 38 -844 
Q 366 -844 484 -692 
Q 603 -541 603 -63 
L 603 3500 
z
M 603 4863 
L 1178 4863 
L 1178 4134 
L 603 4134 
L 603 4863 
z
" transform="scale(0.015625)"/>
       </defs>
       <use xlink:href="#DejaVuSans-6a"/>
       <use xlink:href="#DejaVuSans-75" x="27.783203"/>
       <use xlink:href="#DejaVuSans-67" x="91.162109"/>
      </g>
     </g>
    </g>
    <g id="xtick_39">
     <g id="line2d_39">
      <g>
       <use xlink:href="#m5f5f6cddfe" x="1261.043828" y="595.462447" style="stroke: #000000; stroke-width: 0.8"/>
      </g>
     </g>
     <g id="text_39">
      <!-- ottoman -->
      <g transform="translate(1254.086693 665.962148)rotate(-70)scale(0.15 -0.15)">
       <use xlink:href="#DejaVuSans-6f"/>
       <use xlink:href="#DejaVuSans-74" x="61.181641"/>
       <use xlink:href="#DejaVuSans-74" x="100.390625"/>
       <use xlink:href="#DejaVuSans-6f" x="139.599609"/>
       <use xlink:href="#DejaVuSans-6d" x="200.78125"/>
       <use xlink:href="#DejaVuSans-61" x="298.193359"/>
       <use xlink:href="#DejaVuSans-6e" x="359.472656"/>
      </g>
     </g>
    </g>
    <g id="xtick_40">
     <g id="line2d_40">
      <g>
       <use xlink:href="#m5f5f6cddfe" x="1290.689761" y="595.462447" style="stroke: #000000; stroke-width: 0.8"/>
      </g>
     </g>
     <g id="text_40">
      <!-- tray -->
      <g transform="translate(1289.428865 634.661574)rotate(-70)scale(0.15 -0.15)">
       <use xlink:href="#DejaVuSans-74"/>
       <use xlink:href="#DejaVuSans-72" x="39.208984"/>
       <use xlink:href="#DejaVuSans-61" x="80.322266"/>
       <use xlink:href="#DejaVuSans-79" x="141.601562"/>
      </g>
     </g>
    </g>
    <g id="xtick_41">
     <g id="line2d_41">
      <g>
       <use xlink:href="#m5f5f6cddfe" x="1320.335694" y="595.462447" style="stroke: #000000; stroke-width: 0.8"/>
      </g>
     </g>
     <g id="text_41">
      <!-- vase -->
      <g transform="translate(1318.220282 639.3571)rotate(-70)scale(0.15 -0.15)">
       <use xlink:href="#DejaVuSans-76"/>
       <use xlink:href="#DejaVuSans-61" x="59.179688"/>
       <use xlink:href="#DejaVuSans-73" x="120.458984"/>
       <use xlink:href="#DejaVuSans-65" x="172.558594"/>
      </g>
     </g>
    </g>
    <g id="xtick_42">
     <g id="line2d_42">
      <g>
       <use xlink:href="#m5f5f6cddfe" x="1349.981627" y="595.462447" style="stroke: #000000; stroke-width: 0.8"/>
      </g>
     </g>
     <g id="text_42">
      <!-- garbage bin -->
      <g transform="translate(1338.42686 691.225931)rotate(-70)scale(0.15 -0.15)">
       <use xlink:href="#DejaVuSans-67"/>
       <use xlink:href="#DejaVuSans-61" x="63.476562"/>
       <use xlink:href="#DejaVuSans-72" x="124.755859"/>
       <use xlink:href="#DejaVuSans-62" x="165.869141"/>
       <use xlink:href="#DejaVuSans-61" x="229.345703"/>
       <use xlink:href="#DejaVuSans-67" x="290.625"/>
       <use xlink:href="#DejaVuSans-65" x="354.101562"/>
       <use xlink:href="#DejaVuSans-20" x="415.625"/>
       <use xlink:href="#DejaVuSans-62" x="447.412109"/>
       <use xlink:href="#DejaVuSans-69" x="510.888672"/>
       <use xlink:href="#DejaVuSans-6e" x="538.671875"/>
      </g>
     </g>
    </g>
   </g>
   <g id="matplotlib.axis_2">
    <g id="ytick_1">
     <g id="line2d_43">
      <defs>
       <path id="m84697722ff" d="M 0 0 
L -3.5 0 
" style="stroke: #000000; stroke-width: 0.8"/>
      </defs>
      <g>
       <use xlink:href="#m84697722ff" x="60.68" y="595.462447" style="stroke: #000000; stroke-width: 0.8"/>
      </g>
     </g>
     <g id="text_43">
      <!-- 0 -->
      <g transform="translate(44.13625 601.161275)scale(0.15 -0.15)">
       <defs>
        <path id="DejaVuSans-30" d="M 2034 4250 
Q 1547 4250 1301 3770 
Q 1056 3291 1056 2328 
Q 1056 1369 1301 889 
Q 1547 409 2034 409 
Q 2525 409 2770 889 
Q 3016 1369 3016 2328 
Q 3016 3291 2770 3770 
Q 2525 4250 2034 4250 
z
M 2034 4750 
Q 2819 4750 3233 4129 
Q 3647 3509 3647 2328 
Q 3647 1150 3233 529 
Q 2819 -91 2034 -91 
Q 1250 -91 836 529 
Q 422 1150 422 2328 
Q 422 3509 836 4129 
Q 1250 4750 2034 4750 
z
" transform="scale(0.015625)"/>
       </defs>
       <use xlink:href="#DejaVuSans-30"/>
      </g>
     </g>
    </g>
    <g id="ytick_2">
     <g id="line2d_44">
      <g>
       <use xlink:href="#m84697722ff" x="60.68" y="485.923391" style="stroke: #000000; stroke-width: 0.8"/>
      </g>
     </g>
     <g id="text_44">
      <!-- 5 -->
      <g transform="translate(44.13625 491.622219)scale(0.15 -0.15)">
       <defs>
        <path id="DejaVuSans-35" d="M 691 4666 
L 3169 4666 
L 3169 4134 
L 1269 4134 
L 1269 2991 
Q 1406 3038 1543 3061 
Q 1681 3084 1819 3084 
Q 2600 3084 3056 2656 
Q 3513 2228 3513 1497 
Q 3513 744 3044 326 
Q 2575 -91 1722 -91 
Q 1428 -91 1123 -41 
Q 819 9 494 109 
L 494 744 
Q 775 591 1075 516 
Q 1375 441 1709 441 
Q 2250 441 2565 725 
Q 2881 1009 2881 1497 
Q 2881 1984 2565 2268 
Q 2250 2553 1709 2553 
Q 1456 2553 1204 2497 
Q 953 2441 691 2322 
L 691 4666 
z
" transform="scale(0.015625)"/>
       </defs>
       <use xlink:href="#DejaVuSans-35"/>
      </g>
     </g>
    </g>
    <g id="ytick_3">
     <g id="line2d_45">
      <g>
       <use xlink:href="#m84697722ff" x="60.68" y="376.384334" style="stroke: #000000; stroke-width: 0.8"/>
      </g>
     </g>
     <g id="text_45">
      <!-- 10 -->
      <g transform="translate(34.5925 382.083162)scale(0.15 -0.15)">
       <defs>
        <path id="DejaVuSans-31" d="M 794 531 
L 1825 531 
L 1825 4091 
L 703 3866 
L 703 4441 
L 1819 4666 
L 2450 4666 
L 2450 531 
L 3481 531 
L 3481 0 
L 794 0 
L 794 531 
z
" transform="scale(0.015625)"/>
       </defs>
       <use xlink:href="#DejaVuSans-31"/>
       <use xlink:href="#DejaVuSans-30" x="63.623047"/>
      </g>
     </g>
    </g>
    <g id="ytick_4">
     <g id="line2d_46">
      <g>
       <use xlink:href="#m84697722ff" x="60.68" y="266.845277" style="stroke: #000000; stroke-width: 0.8"/>
      </g>
     </g>
     <g id="text_46">
      <!-- 15 -->
      <g transform="translate(34.5925 272.544106)scale(0.15 -0.15)">
       <use xlink:href="#DejaVuSans-31"/>
       <use xlink:href="#DejaVuSans-35" x="63.623047"/>
      </g>
     </g>
    </g>
    <g id="ytick_5">
     <g id="line2d_47">
      <g>
       <use xlink:href="#m84697722ff" x="60.68" y="157.306221" style="stroke: #000000; stroke-width: 0.8"/>
      </g>
     </g>
     <g id="text_47">
      <!-- 20 -->
      <g transform="translate(34.5925 163.005049)scale(0.15 -0.15)">
       <defs>
        <path id="DejaVuSans-32" d="M 1228 531 
L 3431 531 
L 3431 0 
L 469 0 
L 469 531 
Q 828 903 1448 1529 
Q 2069 2156 2228 2338 
Q 2531 2678 2651 2914 
Q 2772 3150 2772 3378 
Q 2772 3750 2511 3984 
Q 2250 4219 1831 4219 
Q 1534 4219 1204 4116 
Q 875 4013 500 3803 
L 500 4441 
Q 881 4594 1212 4672 
Q 1544 4750 1819 4750 
Q 2544 4750 2975 4387 
Q 3406 4025 3406 3419 
Q 3406 3131 3298 2873 
Q 3191 2616 2906 2266 
Q 2828 2175 2409 1742 
Q 1991 1309 1228 531 
z
" transform="scale(0.015625)"/>
       </defs>
       <use xlink:href="#DejaVuSans-32"/>
       <use xlink:href="#DejaVuSans-30" x="63.623047"/>
      </g>
     </g>
    </g>
    <g id="ytick_6">
     <g id="line2d_48">
      <g>
       <use xlink:href="#m84697722ff" x="60.68" y="47.767164" style="stroke: #000000; stroke-width: 0.8"/>
      </g>
     </g>
     <g id="text_48">
      <!-- 25 -->
      <g transform="translate(34.5925 53.465993)scale(0.15 -0.15)">
       <use xlink:href="#DejaVuSans-32"/>
       <use xlink:href="#DejaVuSans-35" x="63.623047"/>
      </g>
     </g>
    </g>
    <g id="text_49">
     <!-- Part count -->
     <g transform="translate(27.472969 344.178489)rotate(-90)scale(0.15 -0.15)">
      <defs>
       <path id="DejaVuSans-50" d="M 1259 4147 
L 1259 2394 
L 2053 2394 
Q 2494 2394 2734 2622 
Q 2975 2850 2975 3272 
Q 2975 3691 2734 3919 
Q 2494 4147 2053 4147 
L 1259 4147 
z
M 628 4666 
L 2053 4666 
Q 2838 4666 3239 4311 
Q 3641 3956 3641 3272 
Q 3641 2581 3239 2228 
Q 2838 1875 2053 1875 
L 1259 1875 
L 1259 0 
L 628 0 
L 628 4666 
z
" transform="scale(0.015625)"/>
      </defs>
      <use xlink:href="#DejaVuSans-50"/>
      <use xlink:href="#DejaVuSans-61" x="55.802734"/>
      <use xlink:href="#DejaVuSans-72" x="117.082031"/>
      <use xlink:href="#DejaVuSans-74" x="158.195312"/>
      <use xlink:href="#DejaVuSans-20" x="197.404297"/>
      <use xlink:href="#DejaVuSans-63" x="229.191406"/>
      <use xlink:href="#DejaVuSans-6f" x="284.171875"/>
      <use xlink:href="#DejaVuSans-75" x="345.353516"/>
      <use xlink:href="#DejaVuSans-6e" x="408.732422"/>
      <use xlink:href="#DejaVuSans-74" x="472.111328"/>
     </g>
    </g>
   </g>
   <g id="patch_87">
    <path d="M 60.68 595.462447 
L 60.68 16.2 
" style="fill: none; stroke: #000000; stroke-width: 0.8; stroke-linejoin: miter; stroke-linecap: square"/>
   </g>
   <g id="patch_88">
    <path d="M 1423.8 595.462447 
L 1423.8 16.2 
" style="fill: none; stroke: #000000; stroke-width: 0.8; stroke-linejoin: miter; stroke-linecap: square"/>
   </g>
   <g id="patch_89">
    <path d="M 60.68 595.462447 
L 1423.8 595.462447 
" style="fill: none; stroke: #000000; stroke-width: 0.8; stroke-linejoin: miter; stroke-linecap: square"/>
   </g>
   <g id="patch_90">
    <path d="M 60.68 16.2 
L 1423.8 16.2 
" style="fill: none; stroke: #000000; stroke-width: 0.8; stroke-linejoin: miter; stroke-linecap: square"/>
   </g>
   <g id="legend_1">
    <g id="patch_91">
     <path d="M 1313.245312 72.234375 
L 1413.3 72.234375 
Q 1416.3 72.234375 1416.3 69.234375 
L 1416.3 26.7 
Q 1416.3 23.7 1413.3 23.7 
L 1313.245312 23.7 
Q 1310.245312 23.7 1310.245312 26.7 
L 1310.245312 69.234375 
Q 1310.245312 72.234375 1313.245312 72.234375 
z
" style="fill: #ffffff; opacity: 0.8; stroke: #cccccc; stroke-linejoin: miter"/>
    </g>
    <g id="patch_92">
     <path d="M 1316.245312 41.097656 
L 1346.245312 41.097656 
L 1346.245312 30.597656 
L 1316.245312 30.597656 
z
" style="fill: #4a98c9"/>
    </g>
    <g id="text_50">
     <!-- Fine -->
     <g transform="translate(1358.245312 41.097656)scale(0.15 -0.15)">
      <defs>
       <path id="DejaVuSans-46" d="M 628 4666 
L 3309 4666 
L 3309 4134 
L 1259 4134 
L 1259 2759 
L 3109 2759 
L 3109 2228 
L 1259 2228 
L 1259 0 
L 628 0 
L 628 4666 
z
" transform="scale(0.015625)"/>
      </defs>
      <use xlink:href="#DejaVuSans-46"/>
      <use xlink:href="#DejaVuSans-69" x="50.269531"/>
      <use xlink:href="#DejaVuSans-6e" x="78.052734"/>
      <use xlink:href="#DejaVuSans-65" x="141.431641"/>
     </g>
    </g>
    <g id="patch_93">
     <path d="M 1316.245312 63.114844 
L 1346.245312 63.114844 
L 1346.245312 52.614844 
L 1316.245312 52.614844 
z
" style="fill: #f14432"/>
    </g>
    <g id="text_51">
     <!-- Coarse -->
     <g transform="translate(1358.245312 63.114844)scale(0.15 -0.15)">
      <defs>
       <path id="DejaVuSans-43" d="M 4122 4306 
L 4122 3641 
Q 3803 3938 3442 4084 
Q 3081 4231 2675 4231 
Q 1875 4231 1450 3742 
Q 1025 3253 1025 2328 
Q 1025 1406 1450 917 
Q 1875 428 2675 428 
Q 3081 428 3442 575 
Q 3803 722 4122 1019 
L 4122 359 
Q 3791 134 3420 21 
Q 3050 -91 2638 -91 
Q 1578 -91 968 557 
Q 359 1206 359 2328 
Q 359 3453 968 4101 
Q 1578 4750 2638 4750 
Q 3056 4750 3426 4639 
Q 3797 4528 4122 4306 
z
" transform="scale(0.015625)"/>
      </defs>
      <use xlink:href="#DejaVuSans-43"/>
      <use xlink:href="#DejaVuSans-6f" x="69.824219"/>
      <use xlink:href="#DejaVuSans-61" x="131.005859"/>
      <use xlink:href="#DejaVuSans-72" x="192.285156"/>
      <use xlink:href="#DejaVuSans-73" x="233.398438"/>
      <use xlink:href="#DejaVuSans-65" x="285.498047"/>
     </g>
    </g>
   </g>
  </g>
 </g>
 <defs>
  <clipPath id="pd3fe94de4d">
   <rect x="60.68" y="16.2" width="1363.12" height="579.262447"/>
  </clipPath>
 </defs>
</svg>
